<svg xmlns="http://www.w3.org/2000/svg" viewBox="0 0 512 512">
  <rect width="512" height="512" rx="108" fill="#0b57d0"/>
  <path d="M256 70c86 0 142 28 142 117 0 99-73 171-142 203-69-32-142-104-142-203C114 98 170 70 256 70Z" fill="#ffffff" opacity=".96"/>
  <path d="M256 121l26 52 58 8-42 41 10 58-52-27-52 27 10-58-42-41 58-8 26-52Z" fill="#0b57d0"/>
  <path d="M177 344c39 0 79-27 79-27s40 27 79 27M177 383c39 0 79-27 79-27s40 27 79 27" fill="none" stroke="#0b57d0" stroke-width="24" stroke-linecap="round" stroke-linejoin="round"/>
</svg>
